<?xml version="1.0" encoding="UTF-8" standalone="no"?>
<!DOCTYPE svg PUBLIC "-//W3C//DTD SVG 20010904//EN"
              "http://www.w3.org/TR/2001/REC-SVG-20010904/DTD/svg10.dtd">

<svg xmlns="http://www.w3.org/2000/svg"
     width="2.66333in" height="1.42333in"
     viewBox="0 0 799 427">
  <path id="Selection #2"
        fill="none" stroke="black" stroke-width="1"
        d="M 387.00,29.00
           C 387.00,29.00 387.00,52.00 387.00,52.00
             387.00,52.00 409.00,52.00 409.00,52.00
             409.00,52.00 409.00,29.00 409.00,29.00
             409.00,29.00 387.00,29.00 387.00,29.00 Z
           M 282.00,35.00
           C 282.00,35.00 282.00,129.00 282.00,129.00
             285.77,126.30 293.84,119.25 295.40,115.00
             296.12,113.06 296.00,110.09 296.00,108.00
             296.00,108.00 296.00,49.00 296.00,49.00
             296.00,49.00 355.00,49.00 355.00,49.00
             357.09,49.00 360.06,49.12 362.00,48.40
             366.25,46.84 373.30,38.77 376.00,35.00
             376.00,35.00 282.00,35.00 282.00,35.00 Z
           M 420.00,35.00
           C 422.70,38.77 429.75,46.84 434.00,48.40
             435.94,49.12 438.91,49.00 441.00,49.00
             441.00,49.00 500.00,49.00 500.00,49.00
             500.00,49.00 500.00,108.00 500.00,108.00
             500.00,110.09 499.88,113.06 500.60,115.00
             502.16,119.25 510.23,126.30 514.00,129.00
             514.00,129.00 514.00,35.00 514.00,35.00
             514.00,35.00 420.00,35.00 420.00,35.00 Z
           M 352.00,67.00
           C 352.00,67.00 352.00,90.00 352.00,90.00
             352.00,90.00 411.00,90.00 411.00,90.00
             411.00,90.00 411.00,67.00 411.00,67.00
             411.00,67.00 352.00,67.00 352.00,67.00 Z
           M 425.00,67.00
           C 425.00,67.00 425.00,90.00 425.00,90.00
             425.00,90.00 448.00,90.00 448.00,90.00
             448.00,90.00 448.00,67.00 448.00,67.00
             448.00,67.00 425.00,67.00 425.00,67.00 Z
           M 317.00,104.00
           C 317.00,104.00 317.00,126.00 317.00,126.00
             317.00,126.00 374.00,126.00 374.00,126.00
             374.00,126.00 374.00,104.00 374.00,104.00
             374.00,104.00 317.00,104.00 317.00,104.00 Z
           M 389.00,104.00
           C 389.00,104.00 389.00,162.00 389.00,162.00
             389.00,162.00 412.00,162.00 412.00,162.00
             412.00,162.00 412.00,104.00 412.00,104.00
             412.00,104.00 389.00,104.00 389.00,104.00 Z
           M 425.00,104.00
           C 425.00,104.00 425.00,126.00 425.00,126.00
             425.00,126.00 484.00,126.00 484.00,126.00
             484.00,126.00 484.00,104.00 484.00,104.00
             484.00,104.00 425.00,104.00 425.00,104.00 Z
           M 275.00,140.00
           C 275.00,140.00 275.00,162.00 275.00,162.00
             275.00,162.00 374.00,162.00 374.00,162.00
             374.00,162.00 374.00,140.00 374.00,140.00
             374.00,140.00 275.00,140.00 275.00,140.00 Z
           M 425.00,140.00
           C 425.00,140.00 425.00,234.00 425.00,234.00
             425.00,234.00 448.00,234.00 448.00,234.00
             448.00,234.00 448.00,140.00 448.00,140.00
             448.00,140.00 425.00,140.00 425.00,140.00 Z
           M 461.00,140.00
           C 461.00,140.00 461.00,163.00 461.00,163.00
             461.00,163.00 521.00,163.00 521.00,163.00
             521.00,163.00 521.00,140.00 521.00,140.00
             521.00,140.00 461.00,140.00 461.00,140.00 Z
           M 282.00,173.00
           C 282.00,173.00 282.00,267.00 282.00,267.00
             282.00,267.00 376.00,267.00 376.00,267.00
             373.30,263.23 366.25,255.16 362.00,253.60
             360.06,252.88 357.09,253.00 355.00,253.00
             355.00,253.00 296.00,253.00 296.00,253.00
             296.00,253.00 296.00,194.00 296.00,194.00
             296.00,191.91 296.12,188.94 295.40,187.00
             293.84,182.75 285.77,175.70 282.00,173.00 Z
           M 513.00,173.00
           C 505.28,180.72 500.02,182.78 500.00,194.00
             500.00,194.00 500.00,253.00 500.00,253.00
             500.00,253.00 441.00,253.00 441.00,253.00
             438.91,253.00 435.94,252.88 434.00,253.60
             429.75,255.16 422.70,263.23 420.00,267.00
             420.00,267.00 514.00,267.00 514.00,267.00
             514.00,267.00 514.00,202.00 514.00,202.00
             514.00,195.74 514.91,177.83 513.00,173.00 Z
           M 317.00,176.00
           C 317.00,176.00 317.00,199.00 317.00,199.00
             317.00,199.00 338.00,199.00 338.00,199.00
             338.00,199.00 338.00,176.00 338.00,176.00
             338.00,176.00 317.00,176.00 317.00,176.00 Z
           M 352.00,176.00
           C 352.00,176.00 352.00,199.00 352.00,199.00
             352.00,199.00 412.00,199.00 412.00,199.00
             412.00,199.00 412.00,176.00 412.00,176.00
             412.00,176.00 352.00,176.00 352.00,176.00 Z
           M 461.00,176.00
           C 461.00,176.00 461.00,199.00 461.00,199.00
             461.00,199.00 484.00,199.00 484.00,199.00
             484.00,199.00 484.00,176.00 484.00,176.00
             484.00,176.00 461.00,176.00 461.00,176.00 Z
           M 352.00,212.00
           C 352.00,212.00 352.00,234.00 352.00,234.00
             352.00,234.00 374.00,234.00 374.00,234.00
             374.00,234.00 374.00,212.00 374.00,212.00
             374.00,212.00 352.00,212.00 352.00,212.00 Z
           M 387.00,213.00
           C 387.00,213.00 387.00,272.00 387.00,272.00
             387.00,272.00 410.00,272.00 410.00,272.00
             410.00,272.00 410.00,213.00 410.00,213.00
             410.00,213.00 387.00,213.00 387.00,213.00 Z
           M 41.00,358.00
           C 41.00,358.00 84.00,358.00 84.00,358.00
             88.87,357.94 93.97,357.21 97.61,353.61
             104.00,347.27 103.55,333.62 96.67,327.80
             89.86,322.02 71.03,324.02 62.00,324.00
             59.97,324.00 56.02,324.20 54.37,322.98
             53.67,322.46 53.20,321.82 53.20,320.91
             53.20,316.94 59.36,317.02 62.00,317.00
             62.00,317.00 88.00,317.00 88.00,317.00
             90.75,316.96 93.46,316.99 95.78,315.26
             99.33,312.61 99.80,308.06 100.00,304.00
             100.00,304.00 57.00,304.00 57.00,304.00
             52.38,304.06 47.89,304.46 44.24,307.57
             36.99,313.59 37.05,328.25 44.24,334.20
             51.08,339.76 70.05,337.98 79.00,338.00
             81.03,338.00 84.98,337.80 86.63,339.02
             87.33,339.54 87.80,340.18 87.80,341.09
             87.80,345.06 81.64,344.98 79.00,345.00
             79.00,345.00 61.00,345.00 61.00,345.00
             49.93,345.00 41.71,343.76 41.00,358.00 Z
           M 106.00,317.00
           C 106.00,317.00 130.00,317.00 130.00,317.00
             130.00,317.00 130.00,358.00 130.00,358.00
             133.91,357.67 138.71,357.17 141.26,353.78
             143.29,351.08 142.99,347.21 143.00,344.00
             143.00,344.00 143.00,317.00 143.00,317.00
             155.24,317.00 166.20,320.33 167.00,304.00
             167.00,304.00 129.00,304.00 129.00,304.00
             124.66,304.00 115.65,303.45 112.04,305.31
             107.38,307.73 106.43,312.25 106.00,317.00 Z
           M 184.00,304.23
           C 173.68,306.93 170.05,311.52 170.00,322.00
             170.00,322.00 170.00,339.00 170.00,339.00
             170.01,344.61 169.92,348.49 174.21,352.79
             176.55,355.13 179.80,356.73 183.00,357.47
             183.00,357.47 214.00,358.00 214.00,358.00
             231.38,357.97 235.97,350.38 236.00,334.00
             236.01,326.49 236.79,316.16 231.61,310.10
             226.83,304.51 220.79,304.01 214.00,304.23
             214.00,304.23 184.00,304.23 184.00,304.23 Z
           M 240.00,358.00
           C 243.62,357.69 247.70,357.23 250.35,354.43
             252.87,351.78 252.95,348.43 253.00,345.00
             253.00,345.00 253.00,324.00 253.00,324.00
             253.00,324.00 276.00,350.00 276.00,350.00
             278.68,352.93 281.72,357.55 286.00,357.67
             295.97,357.96 296.99,348.43 297.00,341.00
             297.00,341.00 297.00,304.00 297.00,304.00
             293.58,304.16 289.96,304.36 287.13,306.56
             280.91,311.39 283.00,329.40 283.00,337.00
             283.00,337.00 261.08,313.00 261.08,313.00
             258.10,309.76 254.80,304.46 250.00,304.33
             241.15,304.08 240.01,311.18 240.00,318.00
             240.00,318.00 240.00,358.00 240.00,358.00 Z
           M 357.00,344.00
           C 357.00,344.00 314.00,345.00 314.00,345.00
             314.00,345.00 314.00,338.00 314.00,338.00
             314.00,338.00 336.00,337.09 336.00,337.09
             339.31,336.86 342.95,337.39 345.98,335.83
             350.76,333.37 352.47,329.00 353.00,324.00
             353.00,324.00 314.00,324.00 314.00,324.00
             314.00,324.00 314.00,317.00 314.00,317.00
             314.00,317.00 328.00,317.00 328.00,317.00
             337.84,317.02 348.60,321.03 355.28,310.98
             356.68,308.88 357.28,306.39 358.00,304.00
             358.00,304.00 323.00,304.00 323.00,304.00
             318.70,304.00 310.67,303.48 307.02,305.31
             301.39,308.14 301.03,312.43 301.00,318.00
             301.00,318.00 301.00,343.00 301.00,343.00
             301.01,347.94 300.70,352.09 305.11,355.44
             309.45,358.74 317.70,358.00 323.00,358.00
             335.88,358.00 355.10,361.77 357.00,344.00 Z
           M 362.00,304.00
           C 362.09,307.44 362.03,310.00 364.43,312.79
             367.27,316.08 370.96,316.76 375.00,317.41
             375.00,317.41 403.00,318.00 403.00,318.00
             409.95,317.93 413.34,316.01 414.00,324.00
             414.00,324.00 362.00,324.00 362.00,324.00
             362.00,330.42 360.69,349.16 364.01,353.78
             366.79,357.66 371.65,357.94 376.00,358.00
             376.00,358.00 410.00,358.00 410.00,358.00
             414.45,357.98 418.14,357.93 421.98,355.30
             430.15,349.72 430.13,337.31 423.00,331.00
             428.58,323.08 429.51,311.57 420.00,306.09
             416.42,304.03 412.97,304.02 409.00,304.00
             409.00,304.00 362.00,304.00 362.00,304.00 Z
           M 432.00,304.00
           C 432.00,304.00 432.00,335.00 432.00,335.00
             432.01,341.97 432.36,349.60 438.18,354.43
             443.86,359.14 453.95,358.00 461.00,358.00
             473.67,358.00 492.67,361.72 497.21,346.00
             498.10,342.93 498.00,340.15 498.00,337.00
             498.01,330.42 499.62,312.08 495.35,307.57
             492.70,304.77 488.62,304.31 485.00,304.00
             485.00,304.00 485.00,333.00 485.00,333.00
             485.00,335.48 485.22,339.59 483.83,341.69
             482.23,344.07 479.55,343.95 477.00,344.00
             477.00,344.00 446.00,344.00 446.00,344.00
             446.00,344.00 446.00,320.00 446.00,320.00
             445.99,315.90 446.25,311.53 443.49,308.14
             440.52,304.51 436.32,304.20 432.00,304.00 Z
           M 502.00,304.00
           C 502.09,307.92 502.13,311.69 505.28,314.57
             507.86,316.94 510.72,316.95 514.00,317.00
             514.00,317.00 539.00,317.00 539.00,317.00
             541.52,317.04 544.54,316.98 546.57,318.74
             549.14,320.97 549.05,324.92 545.77,326.40
             544.31,327.06 541.62,326.99 540.00,327.00
             540.00,327.00 520.00,327.00 520.00,327.00
             520.00,327.00 502.00,327.00 502.00,327.00
             502.00,327.00 502.00,358.00 502.00,358.00
             502.00,358.00 515.00,358.00 515.00,358.00
             515.00,358.00 515.00,341.00 515.00,341.00
             515.00,341.00 531.00,342.02 531.00,342.02
             531.00,342.02 547.00,356.98 547.00,356.98
             547.00,356.98 565.00,358.00 565.00,358.00
             565.00,358.00 550.00,340.00 550.00,340.00
             565.29,336.75 565.53,312.84 553.98,306.09
             549.30,303.34 542.33,304.00 537.00,304.00
             537.00,304.00 502.00,304.00 502.00,304.00 Z
           M 573.00,358.00
           C 576.52,357.70 580.79,357.33 583.35,354.57
             585.83,351.91 585.95,348.42 586.00,345.00
             586.00,345.00 586.00,324.00 586.00,324.00
             586.00,324.00 607.42,348.00 607.42,348.00
             609.70,350.63 614.71,356.96 618.09,357.60
             619.52,357.86 621.65,357.47 623.00,356.97
             630.05,354.37 629.99,348.31 630.00,342.00
             630.00,342.00 630.00,304.00 630.00,304.00
             625.96,304.20 621.26,304.72 618.60,308.22
             616.85,310.52 617.02,313.27 617.00,316.00
             617.00,316.00 617.00,338.00 617.00,338.00
             617.00,338.00 595.17,314.00 595.17,314.00
             592.32,310.83 588.45,305.11 584.00,304.49
             582.56,304.28 580.37,304.76 579.02,305.26
             572.65,307.64 573.01,312.27 573.00,318.00
             573.00,318.00 573.00,358.00 573.00,358.00 Z
           M 691.00,344.00
           C 691.00,344.00 647.00,345.00 647.00,345.00
             647.00,345.00 647.00,338.00 647.00,338.00
             647.00,338.00 669.00,337.09 669.00,337.09
             672.34,336.86 675.90,337.39 679.00,335.83
             683.88,333.35 685.81,329.01 687.00,324.00
             687.00,324.00 647.00,324.00 647.00,324.00
             647.00,324.00 647.00,317.00 647.00,317.00
             647.00,317.00 661.00,317.00 661.00,317.00
             671.41,317.02 682.33,321.32 688.92,310.00
             690.07,308.02 690.48,306.18 691.00,304.00
             691.00,304.00 649.00,304.00 649.00,304.00
             644.44,304.06 639.64,304.31 636.51,308.14
             634.13,311.06 634.05,314.44 634.00,318.00
             634.00,318.00 634.00,342.00 634.00,342.00
             634.01,346.51 633.69,351.19 637.28,354.58
             640.99,358.10 646.25,357.99 651.00,358.00
             651.00,358.00 672.00,358.00 672.00,358.00
             683.28,357.95 687.70,354.93 691.00,344.00 Z
           M 695.00,304.00
           C 695.09,307.92 695.13,311.69 698.28,314.57
             700.86,316.94 703.72,316.95 707.00,317.00
             707.00,317.00 732.00,317.00 732.00,317.00
             734.52,317.04 737.54,316.98 739.57,318.74
             742.14,320.97 742.05,324.92 738.77,326.40
             737.31,327.06 734.62,326.99 733.00,327.00
             733.00,327.00 713.00,327.00 713.00,327.00
             713.00,327.00 695.00,327.00 695.00,327.00
             695.00,327.00 695.00,358.00 695.00,358.00
             695.00,358.00 708.00,358.00 708.00,358.00
             708.00,358.00 708.00,341.00 708.00,341.00
             708.00,341.00 724.00,342.02 724.00,342.02
             724.00,342.02 740.00,356.98 740.00,356.98
             740.00,356.98 757.00,358.00 757.00,358.00
             754.65,352.01 747.52,344.92 743.00,340.00
             758.44,336.16 758.40,312.77 746.98,306.09
             742.30,303.34 735.33,304.00 730.00,304.00
             730.00,304.00 695.00,304.00 695.00,304.00 Z
           M 188.02,317.17
           C 188.02,317.17 210.00,317.17 210.00,317.17
             213.18,317.00 218.91,316.62 220.98,319.51
             222.56,321.73 222.06,333.71 222.00,337.00
             221.95,339.56 222.10,342.12 219.69,343.69
             217.70,344.97 214.30,344.97 212.00,345.00
             212.00,345.00 195.00,345.00 195.00,345.00
             192.27,345.00 187.63,345.19 185.31,343.69
             182.90,342.12 183.05,339.56 183.00,337.00
             182.94,333.71 182.44,321.73 184.02,319.51
             185.13,317.95 186.38,317.86 188.02,317.17 Z
           M 415.00,338.00
           C 414.92,340.40 415.22,342.99 412.71,344.26
             410.67,345.29 403.60,345.00 401.00,345.00
             401.00,345.00 375.00,345.00 375.00,345.00
             375.00,345.00 375.00,338.00 375.00,338.00
             375.00,338.00 415.00,338.00 415.00,338.00 Z
           M 164.00,393.00
           C 154.98,396.38 140.87,395.00 131.00,395.00
             131.00,395.00 131.00,402.00 131.00,402.00
             137.78,402.00 160.00,402.85 165.00,400.85
             173.07,397.64 172.18,387.96 167.85,384.73
             164.38,382.15 158.17,382.16 154.00,381.96
             148.67,381.70 142.99,380.87 138.00,379.00
             138.00,379.00 143.00,376.16 143.00,376.16
             143.00,376.16 169.00,376.16 169.00,376.16
             169.00,376.16 169.00,369.00 169.00,369.00
             162.52,369.00 141.82,368.22 137.00,370.15
             129.16,373.27 130.03,382.05 133.43,385.15
             136.44,387.89 140.27,387.76 144.00,388.16
             151.85,389.01 157.41,388.05 164.00,393.00 Z
           M 210.00,369.52
           C 194.18,373.93 196.28,391.19 201.39,396.79
             205.87,401.69 212.85,401.99 219.00,402.00
             225.21,402.01 232.68,402.39 237.89,398.35
             244.86,392.97 244.86,378.03 237.89,372.65
             232.01,368.10 217.15,368.38 210.00,369.52 Z
           M 271.00,402.00
           C 271.00,402.00 279.00,402.00 279.00,402.00
             279.00,402.00 279.00,391.00 279.00,391.00
             279.00,391.00 309.00,391.00 309.00,391.00
             309.00,391.00 309.00,384.00 309.00,384.00
             309.00,384.00 279.00,384.00 279.00,384.00
             279.00,384.00 282.15,378.17 282.15,378.17
             282.15,378.17 290.00,377.00 290.00,377.00
             290.00,377.00 310.00,377.00 310.00,377.00
             310.00,377.00 310.00,369.00 310.00,369.00
             300.63,369.00 278.33,366.42 272.85,375.04
             269.89,379.71 271.00,395.86 271.00,402.00 Z
           M 335.00,369.00
           C 335.00,369.00 335.00,376.00 335.00,376.00
             335.00,376.00 350.00,376.00 350.00,376.00
             350.00,376.00 350.00,402.00 350.00,402.00
             350.00,402.00 358.00,402.00 358.00,402.00
             358.00,402.00 358.00,376.00 358.00,376.00
             358.00,376.00 374.00,376.00 374.00,376.00
             374.00,376.00 374.00,369.00 374.00,369.00
             374.00,369.00 335.00,369.00 335.00,369.00 Z
           M 398.00,369.00
           C 399.12,375.20 403.07,383.10 405.77,389.00
             407.22,392.18 408.74,396.33 411.22,398.77
             417.97,405.41 427.10,401.49 430.00,393.00
             431.26,395.02 432.47,397.11 434.21,398.77
             438.60,402.97 445.41,403.07 449.78,398.77
             452.26,396.33 453.78,392.18 455.23,389.00
             457.93,383.10 461.88,375.20 463.00,369.00
             460.94,369.01 457.39,368.74 455.70,369.99
             452.86,372.10 447.93,388.21 444.37,391.71
             440.37,395.64 436.82,388.27 436.17,385.00
             435.25,380.29 439.59,376.50 441.00,369.00
             434.47,369.08 432.97,369.41 431.00,376.00
             427.31,369.70 427.39,369.10 420.00,369.00
             421.41,376.50 425.75,380.29 424.83,385.00
             424.18,388.27 420.63,395.64 416.63,391.71
             413.07,388.21 408.14,372.10 405.30,369.99
             403.61,368.74 400.06,369.01 398.00,369.00 Z
           M 483.00,402.00
           C 483.00,402.00 490.61,400.98 490.61,400.98
             490.61,400.98 497.10,394.60 497.10,394.60
             497.10,394.60 509.00,394.00 509.00,394.00
             509.00,394.00 516.61,395.02 516.61,395.02
             516.61,395.02 521.63,401.01 521.63,401.01
             521.63,401.01 529.00,402.00 529.00,402.00
             528.02,396.80 526.56,394.63 524.25,390.00
             519.95,381.40 514.87,364.80 502.00,369.60
             497.84,371.15 495.66,375.29 493.76,379.00
             490.76,384.84 484.65,396.21 483.00,402.00 Z
           M 556.00,369.00
           C 556.00,369.00 556.00,402.00 556.00,402.00
             556.00,402.00 564.00,402.00 564.00,402.00
             564.00,402.00 564.00,391.00 564.00,391.00
             569.14,391.00 583.96,389.78 587.26,393.51
             589.21,395.71 588.97,399.25 589.00,402.00
             589.00,402.00 597.00,402.00 597.00,402.00
             596.99,397.05 597.52,392.05 593.00,389.00
             594.16,387.18 595.74,385.03 596.42,383.00
             598.60,376.48 595.52,371.27 589.00,369.68
             589.00,369.68 556.00,369.00 556.00,369.00 Z
           M 666.00,402.00
           C 666.00,402.00 666.00,394.00 666.00,394.00
             666.00,394.00 644.00,394.00 644.00,394.00
             644.00,394.00 637.04,393.40 637.04,393.40
             637.04,393.40 632.00,389.00 632.00,389.00
             632.00,389.00 665.00,389.00 665.00,389.00
             665.00,389.00 665.00,382.00 665.00,382.00
             665.00,382.00 632.00,382.00 632.00,382.00
             633.68,379.95 634.54,378.64 637.04,377.43
             641.72,375.15 659.84,376.00 666.00,376.00
             666.00,376.00 666.00,369.00 666.00,369.00
             657.65,369.00 636.59,367.50 630.10,371.41
             621.45,376.63 622.38,395.02 631.02,399.86
             636.95,403.20 658.23,402.00 666.00,402.00 Z
           M 214.00,376.33
           C 218.91,375.78 228.75,375.22 232.57,378.70
             236.18,381.98 235.80,390.12 231.77,392.91
             228.42,395.24 222.94,395.04 219.00,395.00
             215.54,394.96 211.14,394.76 208.43,392.30
             205.32,389.47 202.90,379.12 214.00,376.33 Z
           M 513.00,387.00
           C 513.00,387.00 499.00,387.00 499.00,387.00
             499.82,384.40 502.82,376.59 506.11,376.61
             509.77,376.63 512.19,384.17 513.00,387.00 Z
           M 564.00,384.00
           C 564.00,384.00 564.00,376.00 564.00,376.00
             564.00,376.00 581.00,376.00 581.00,376.00
             583.73,376.05 587.25,376.00 588.34,379.13
             590.08,384.06 583.99,383.98 581.00,384.00
             581.00,384.00 564.00,384.00 564.00,384.00 Z" />
</svg>
